PathFileType	4	(X/Y/Z)	Apose_0-50.trc
DataRate	CameraRate	NumFrames	NumMarkers	Units	OrigDataRate	OrigDataStartFrame	OrigNumFrames
30	30	6	22	m	30	0	50
Frame#	Time	Hip			RHip			RKnee			RAnkle			RBigToe			RSmallToe			RHeel			LHip			LKnee			LAnkle			LBigToe			LSmallToe			LHeel			Neck			Head			Nose			RShoulder			RElbow			RWrist			LShoulder			LElbow			LWrist		
		X1	Y1	Z1	X2	Y2	Z2	X3	Y3	Z3	X4	Y4	Z4	X5	Y5	Z5	X6	Y6	Z6	X7	Y7	Z7	X8	Y8	Z8	X9	Y9	Z9	X10	Y10	Z10	X11	Y11	Z11	X12	Y12	Z12	X13	Y13	Z13	X14	Y14	Z14	X15	Y15	Z15	X16	Y16	Z16	X17	Y17	Z17	X18	Y18	Z18	X19	Y19	Z19	X20	Y20	Z20	X21	Y21	Z21	X22	Y22	Z22
1	0.0333333333333333	0.06141826941002726	0.9162922444823173	0.37117937789832683	0.05302006073195058	0.8836645861520142	0.48309716084016907	0.020927003730738414	0.509162891191839	0.5015998108008808	-0.006979393169346972	0.11115378720051493	0.5175239608171677	0.1970578669273107	0.038974337612145984	0.5611554289299711	0.1424066845442805	0.03782784209636011	0.6151079508982765	-0.04838315485388168	0.052097200682231226	0.5070953576633561	0.05238619492364744	0.8862222264219468	0.2606390968557213	0.03301072732559363	0.5122683527724997	0.23086170688206942	0.007057093482389533	0.11606227460233974	0.2085768121516112	0.2168704221301338	0.04460343593223309	0.1823981399101419	0.1626217144438919	0.03969413661367322	0.13098896504018304	-0.029006673474962715	0.04569556784916468	0.22693492756483286	0.05387242614731505	1.5975723926717946	0.3661977456457335	0.2210153558825615	1.8166615030821218	0.27789951644498656	0.2093882660095361	1.651287728338461	0.3254148253324386	0.034631855408409226	1.4873108222142641	0.553829035690085	0.10833203272503514	1.235666215922201	0.7307959312081008	0.18495434485865744	1.037991080700944	0.8918965610014666	0.004406627956833853	1.4755629959213923	0.16625514195472707	0.02018415241920242	1.2286335876599732	0.012783682971393068	0.08287445898242128	1.0179665719935098	-0.13690532423518656
2	0.0666666666666666	0.056147743008416004	0.9172337690884349	0.3690980431913752	0.04772968448600855	0.8839888573704079	0.48074268661153186	0.01760607620483142	0.5086851772982858	0.502054754854523	-0.007026604707260532	0.10817942917914883	0.5180524229179229	0.19843176234539908	0.04022048431217479	0.5613130724455468	0.1430832856147198	0.03783870460484	0.6148409795755798	-0.04747898215918675	0.04832533291263016	0.5067569871025739	0.047352831219066936	0.8864263918551539	0.25841764592525973	0.029668372100741098	0.5126582814845942	0.22960999563706355	0.006927503813187792	0.11700265029764845	0.2093651479732298	0.21727103917962176	0.04514597255090711	0.18181851052093087	0.16410842985307592	0.04110386237960784	0.12954492812438018	-0.029259965966294113	0.047365511408242925	0.22709221813631997	0.0599238532621374	1.594742035237822	0.36645744243844847	0.23963428083374136	1.796223211770643	0.2907494724476172	0.2283052291952584	1.6307692426248113	0.3285574538187057	0.033546047349953395	1.4876555587068678	0.5521031886909317	0.10054151355500428	1.234258892240617	0.7303734670588419	0.17080013845120715	1.0405077547220545	0.895241751407317	0.006544216433460694	1.4762194713829953	0.1623263653938559	0.01658456140342105	1.2278022687575179	0.010329334273507868	0.07254584811000578	1.0193589818151043	-0.1394848526871271
3	0.1	0.05122044096211155	0.9181365310245596	0.36723594395315984	0.04272558172191532	0.8845093237961734	0.47881716021353743	0.014457896446005375	0.5084381576659885	0.5026481048688907	-0.007109088510572976	0.1056971858685479	0.5184356347503054	0.19962717723043943	0.04120851565815092	0.5614277573458694	0.14386089218495526	0.0380722098637825	0.6146425837043531	-0.04671656790950564	0.045205853868471965	0.5063885476224833	0.04262349592651561	0.8866995070903141	0.25646802926648515	0.026373940457611537	0.513070584588971	0.22856575010392635	0.00674829322687214	0.11725505178361954	0.20977879169769525	0.21760376905166498	0.04540072245545703	0.181330946296277	0.16540371342780338	0.042080679885308676	0.12843610662739893	-0.02960451766478717	0.04861992151077249	0.22716880645864923	0.06557010521570684	1.592213315012509	0.36645346945302454	0.25849348352118484	1.7783629514831423	0.29990626785381913	0.24249696752044592	1.6114284803816918	0.3304759130136008	0.032651973892507166	1.488148418046617	0.5504264145497941	0.09300250827164748	1.2335805389338919	0.7297688293565208	0.1583122555343235	1.042949570771528	0.8981291195190979	0.008693089409134477	1.4767906686205055	0.15891177028754966	0.013271292408933318	1.2271641543333995	0.008016227278701937	0.06322607161745866	1.0205016634691206	-0.14191024704067065
4	0.1333333333333333	0.04701752597022338	0.91889234247512	0.36577162161569027	0.038387806306555326	0.8852148438521618	0.477578251045866	0.01169334959639438	0.5084625314265562	0.5034228422478622	-0.007294667245889903	0.10394413848754915	0.5186706020444356	0.20052911995814335	0.04185570312891725	0.5615074899326697	0.14473884108432233	0.03856461571051839	0.6145449040211405	-0.04603585240290819	0.042918499145565295	0.5058736241356024	0.03854227820002777	0.8869849047762316	0.2549353677252179	0.02321375570395155	0.5134303462378439	0.22787633538454516	0.006492044973428962	0.116550653513357	0.2096863215991802	0.21778440932538	0.0452730138751794	0.1810030788062836	0.1662782282120103	0.04245133579142036	0.12779091767158068	-0.03004264117301349	0.04920040693149618	0.22715603184192346	0.07020599876963748	1.5901577453684808	0.3660217797540645	0.27405933325717935	1.7647716438226502	0.305879606150787	0.2495503863580263	1.5948472460994345	0.33066288539302874	0.0319800469077029	1.4887964153917628	0.5488338583848905	0.0861725369529729	1.2339214543506218	0.7288231867357317	0.14863339294048247	1.0451506739480925	0.9002284914843596	0.010766752016020481	1.4771519725727704	0.15628824329117547	0.010650263586736566	1.2266558849171094	0.005995208977030208	0.05587713072212435	1.0211742668352732	-0.14394545267199946
5	0.1666666666666666	0.04377708559830695	0.91936298830442	0.3647480035878201	0.03496570718341364	0.8859399380448407	0.47698497697355197	0.009437839000244905	0.5086776593471908	0.5042847539831247	-0.007597731483412421	0.10284902885798189	0.5188591472001818	0.20115758400191375	0.04221688363631613	0.561589910667465	0.14561416591867068	0.03914380517983182	0.6145329669312363	-0.045355818385280605	0.04130748449752897	0.5051558075055907	0.03532435782481382	0.8871926850063051	0.25377641983026183	0.020318538499928304	0.5136388826197019	0.22753955254683209	0.006192391596031276	0.11511104598598161	0.20924770324915604	0.21778088385411964	0.044872451616924006	0.18083812144271913	0.16664689478635772	0.042326740816379264	0.12752915855676664	-0.030501842458247008	0.04914458046504478	0.2270759035644793	0.07338477627002643	1.5885155311793175	0.3651737505875505	0.28166489865607885	1.7556458252891038	0.31209882702526337	0.2506789009303011	1.5824673529945816	0.3295854294755392	0.03143699360877886	1.4895068579346624	0.5473508278759566	0.08056056491496492	1.2349637656211458	0.7276082514273998	0.14194504710546602	1.0469392944136857	0.9014429721211019	0.012689713063549598	1.477234900134483	0.1544530753286741	0.009028962490494006	1.2260912546518892	0.004352930536086768	0.05100329861789375	1.0211463177381568	-0.1454451237507354
6	0.2	0.04146990007592513	0.9194876798224806	0.36404015063560435	0.03243065928955524	0.8865634117372854	0.476783217952488	0.007688065865638403	0.5090172911488257	0.5050524113812994	-0.007935080216991774	0.10220503874307191	0.5190829093831086	0.2016158376454677	0.042353754967706866	0.5617081507773422	0.14635108001874264	0.03960159710298209	0.6145844288023612	-0.0446724183981742	0.040179167158608885	0.5042687889510364	0.032953307572894566	0.8873265794075339	0.2528343750413555	0.017874557406213697	0.5136877210056922	0.22740429859869138	0.005914942027435821	0.11343902035957777	0.20876199801513037	0.21762412876328474	0.0444215189829317	0.18079379879316154	0.16665475459166457	0.041944744787869095	0.127482917228381	-0.03087676070891143	0.04871528993307188	0.2269090150020622	0.07507985548510153	1.587063683183092	0.36403243923417083	0.28067221518041635	1.7501525961344486	0.3201932113775039	0.2489442512296015	1.574685608233944	0.3281173627624215	0.03095532707766247	1.4902027256949357	0.5459840338249661	0.07638735035141832	1.236137505158764	0.7263831578674151	0.13759798111590119	1.048218902300895	0.9019049285079483	0.014486633730705625	1.4770812780777098	0.15322541083701136	0.008490758018401745	1.2254471200782355	0.003117869515095944	0.048513680072280976	1.0202683279992995	-0.14644024103380807
